<svg id="Layer_1" data-name="Layer 1" xmlns="http://www.w3.org/2000/svg" viewBox="0 0 512 512"><title>tag</title><path d="M512,256c0,141.38-114.61,256-256,256S0,397.39,0,256,114.62,0,256,0,512,114.62,512,256Z" fill="#404041"/><path d="M28,139.51,139.51,28A257.11,257.11,0,0,0,28,139.51Z" fill="#4d4d4f"/><path d="M179.05,11.77,11.78,179a254.11,254.11,0,0,0-6.43,24.7L203.75,5.34A254,254,0,0,0,179.05,11.77Z" fill="#4d4d4f"/><path d="M231.23,1.2l-230,230q-.92,9.6-1.13,19.39L250.63.07Q240.84.27,231.23,1.2Z" fill="#4d4d4f"/><path d="M273.44.6.6,273.43q.56,8.38,1.65,16.61L290,2.26Q281.82,1.17,273.44.6Z" fill="#4d4d4f"/><path d="M309.93,5.71,5.71,309.94q1.59,7.41,3.6,14.66L324.59,9.31Q317.35,7.3,309.93,5.71Z" fill="#4d4d4f"/><path d="M342.32,14.94,14.93,342.32Q17.32,349,20,355.47L355.47,20Q349,17.31,342.32,14.94Z" fill="#4d4d4f"/><path d="M371.41,27.44l-344,344q3,6,6.39,11.87L383.28,33.84Q377.44,30.49,371.41,27.44Z" fill="#4d4d4f"/><path d="M397.69,42.77,42.77,397.69q3.64,5.46,7.54,10.73L408.42,50.31Q403.16,46.41,397.69,42.77Z" fill="#4d4d4f"/><path d="M421.42,60.64,60.64,421.43q4.18,4.93,8.6,9.65L431.08,69.25Q426.36,64.82,421.42,60.64Z" fill="#4d4d4f"/><path d="M442.75,80.92,80.92,442.75q4.72,4.42,9.65,8.6L451.36,90.58Q447.18,85.64,442.75,80.92Z" fill="#4d4d4f"/><path d="M461.69,103.58,103.59,461.7q5.26,3.91,10.73,7.54L469.23,114.32Q465.59,108.85,461.69,103.58Z" fill="#4d4d4f"/><path d="M478.16,128.72,128.72,478.16q5.84,3.35,11.88,6.4l344-344Q481.51,134.57,478.16,128.72Z" fill="#4d4d4f"/><path d="M492,156.53,156.53,492q6.49,2.74,13.16,5.11L497.07,169.69Q494.68,163,492,156.53Z" fill="#4d4d4f"/><path d="M502.69,187.41,187.4,502.69q7.25,2,14.67,3.6L506.29,202.07Q504.7,194.66,502.69,187.41Z" fill="#4d4d4f"/><path d="M509.74,222,222,509.74q8.22,1.09,16.61,1.65L511.4,238.56Q510.83,230.19,509.74,222Z" fill="#4d4d4f"/><path d="M510.8,280.77q.92-9.59,1.13-19.39L261.38,511.93q9.79-.2,19.38-1.13Z" fill="#4d4d4f"/><path d="M333,500.22,500.23,332.95a254.07,254.07,0,0,0,6.43-24.69L308.27,506.65A254.14,254.14,0,0,0,333,500.22Z" fill="#4d4d4f"/><path d="M484,372.5,372.51,484A257.11,257.11,0,0,0,484,372.5Z" fill="#4d4d4f"/><path d="M378.13,286.69l-135.4-135.4h0l0,0,0,0H151.28v91.39l0,0,0,0h0L286.7,378.13a20.91,20.91,0,0,0,29.54,0l61.89-61.89A21,21,0,0,0,378.13,286.69ZM189.84,207.12a17.27,17.27,0,1,1,17.28-17.27A17.27,17.27,0,0,1,189.84,207.12Zm107.77,128.7L212.69,250.9l5.74-5.74,84.91,84.93Zm16.24-16.24-84.92-84.91,5.73-5.74,84.92,84.92Zm16.24-16.21-84.93-84.92,5.74-5.74,84.92,84.91Z" fill="#fff"/></svg>